<?xml version="1.0" encoding="UTF-8"?>
<svg width="32" height="32" viewBox="0 0 32 32" fill="none" xmlns="http://www.w3.org/2000/svg">
  <!-- Arrière-plan -->
  <rect width="32" height="32" rx="6" fill="#7B61FF"/>
  
  <!-- Livre (base) -->
  <path d="M8 7C8 6.44772 8.44772 6 9 6H23C23.5523 6 24 6.44772 24 7V25C24 25.5523 23.5523 26 23 26H9C8.44772 26 8 25.5523 8 25V7Z" fill="#F8F9FA"/>
  
  <!-- Tranches des pages (effet 3D) -->
  <path d="M9 6H21.5C22.0523 6 22.5 6.44772 22.5 7V25C22.5 25.5523 22.0523 26 21.5 26H9C8.44772 26 8 25.5523 8 25V7C8 6.44772 8.44772 6 9 6Z" fill="white"/>
  
  <!-- Marque-pages -->
  <rect x="19" y="6" width="1.5" height="6" rx="0.75" fill="#FF6B6B"/>
  
  <!-- Contenu du livre (lignes de texte) -->
  <rect x="10.5" y="10" width="9" height="1" rx="0.5" fill="#CED4DA"/>
  <rect x="10.5" y="12.5" width="7" height="1" rx="0.5" fill="#CED4DA"/>
  <rect x="10.5" y="15" width="8" height="1" rx="0.5" fill="#CED4DA"/>
  <rect x="10.5" y="17.5" width="9" height="1" rx="0.5" fill="#CED4DA"/>
  <rect x="10.5" y="20" width="6" height="1" rx="0.5" fill="#CED4DA"/>
  
  <!-- Baguette magique -->
  <path d="M22 13L26.5 8.5M26.5 8.5L28 9.5M26.5 8.5L25.5 7" stroke="#FFD700" stroke-width="1.5" stroke-linecap="round"/>
  
  <!-- Étoiles magiques -->
  <path d="M25 13.5L26 13L25 12.5L25.5 11.5L24.5 12L24 11L24 12.5L23 12.5L24 13L23.5 14L25 13.5Z" fill="#FFD700"/>
  <path d="M27 11.5L27.5 11.25L27 11L27.25 10.5L26.75 10.75L26.5 10.25L26.5 11L26 11L26.5 11.25L26.25 11.75L27 11.5Z" fill="#FFD700"/>
</svg>